# Wavefront OBJ exported  

mtllib rus_build_9et_02_LOD2.mtl

v 65.000000 84.000000 16.000000
v -65.000000 84.000000 16.000000
v 65.000000 84.000000 -16.000000
v -65.000000 84.000000 -16.000000
v -65.000000 84.000000 16.000000
v 0.000000 84.000000 16.000000
v -65.000000 44.000000 16.000000
v 0.000000 44.000000 16.000000
v -65.000000 44.000000 16.000000
v 0.000000 44.000000 16.000000
v -65.000000 0.000000 16.000000
v 0.000000 0.000000 16.000000
v 0.000000 84.000000 16.000000
v 65.000000 84.000000 16.000000
v 0.000000 44.000000 16.000000
v 65.000000 44.000000 16.000000
v 0.000000 44.000000 16.000000
v 65.000000 44.000000 16.000000
v 0.000000 0.000000 16.000000
v 65.000000 0.000000 16.000000
v 65.000000 84.000000 -16.000000
v 0.000000 84.000000 -16.000000
v 65.000000 44.000000 -16.000000
v 0.000000 44.000000 -16.000000
v 65.000000 44.000000 -16.000000
v 0.000000 44.000000 -16.000000
v 65.000000 0.000000 -16.000000
v 0.000000 0.000000 -16.000000
v 0.000000 84.000000 -16.000000
v -65.000000 84.000000 -16.000000
v 0.000000 44.000000 -16.000000
v -65.000000 44.000000 -16.000000
v 0.000000 44.000000 -16.000000
v -65.000000 44.000000 -16.000000
v 0.000000 0.000000 -16.000000
v -65.000000 0.000000 -16.000000
v -65.000000 84.000000 -16.000000
v -65.000000 84.000000 16.000000
v -65.000000 44.000000 -16.000000
v -65.000000 44.000000 16.000000
v -65.000000 44.000000 -16.000000
v -65.000000 44.000000 16.000000
v -65.000000 0.000000 -16.000000
v -65.000000 0.000000 16.000000
v 65.000000 84.000000 16.000000
v 65.000000 84.000000 -16.000000
v 65.000000 44.000000 16.000000
v 65.000000 44.000000 -16.000000
v 65.000000 44.000000 16.000000
v 65.000000 44.000000 -16.000000
v 65.000000 0.000000 16.000000
v 65.000000 0.000000 -16.000000
# 52 vertices

vt 0.500000 0.125000
vt 0.500000 0.000000
vt 1.000000 0.000000
vt 1.000000 0.125000
vt 0.312500 1.000000
vt 0.312500 0.843750
vt 0.562500 0.843750
vt 0.562500 1.000000
vt 0.312500 0.968750
vt 0.312500 0.796875
vt 0.562500 0.796875
vt 0.562500 0.968750
vt 0.812500 0.843750
vt 0.812500 1.000000
vt 0.812500 0.796875
vt 0.812500 0.968750
vt 0.187500 1.000000
vt 0.187500 0.843750
vt 0.187500 0.968750
vt 0.187500 0.796875
# 20 texture coordinates

vn 0.000000 1.000000 0.000000
vn 0.000000 0.000000 1.000000
vn 0.000000 0.000000 -1.000000
vn -1.000000 0.000000 0.000000
vn 1.000000 0.000000 0.000000
# 5 normals

g rus_build_9et_02_LOD2
usemtl rus_build_LOD_02
s 1
f 1/1/1 3/2/1 4/3/1
f 1/1/1 4/3/1 2/4/1
f 5/5/2 7/6/2 8/7/2
f 5/5/2 8/7/2 6/8/2
f 9/9/2 11/10/2 12/11/2
f 9/9/2 12/11/2 10/12/2
f 13/5/2 15/6/2 16/7/2
f 13/5/2 16/7/2 14/8/2
f 17/9/2 19/10/2 20/11/2
f 17/9/2 20/11/2 18/12/2
f 21/8/3 23/7/3 24/13/3
f 21/8/3 24/13/3 22/14/3
f 25/12/3 27/11/3 28/15/3
f 25/12/3 28/15/3 26/16/3
f 29/8/3 31/7/3 32/13/3
f 29/8/3 32/13/3 30/14/3
f 33/12/3 35/11/3 36/15/3
f 33/12/3 36/15/3 34/16/3
f 37/17/4 39/18/4 40/6/4
f 37/17/4 40/6/4 38/5/4
f 41/19/4 43/20/4 44/10/4
f 41/19/4 44/10/4 42/9/4
f 45/17/5 47/18/5 48/6/5
f 45/17/5 48/6/5 46/5/5
f 49/19/5 51/20/5 52/10/5
f 49/19/5 52/10/5 50/9/5
# 26 triangles in group

# 26 triangles total

