# Wavefront OBJ exported  

mtllib rus_build_9et_01b_LOD2.mtl

v 11.000000 84.000000 16.000000
v -30.000000 84.000000 16.000000
v 11.000000 84.000000 -16.000000
v -30.000000 84.000000 -16.000000
v 45.000000 84.000000 -24.000000
v 45.000000 84.000000 24.000000
v 11.000000 84.000000 -24.000000
v 11.000000 84.000000 24.000000
v 45.000000 84.000000 24.000000
v 45.000000 84.000000 -24.000000
v 45.000000 44.000000 24.000000
v 45.000000 44.000000 -24.000000
v 45.000000 44.000000 24.000000
v 45.000000 44.000000 -24.000000
v 45.000000 0.000000 24.000000
v 45.000000 0.000000 -24.000000
v 11.000000 84.000000 -24.000000
v 11.000000 84.000000 24.000000
v 11.000000 44.000000 -24.000000
v 11.000000 44.000000 24.000000
v 11.000000 44.000000 -24.000000
v 11.000000 44.000000 24.000000
v 11.000000 0.000000 -24.000000
v 11.000000 0.000000 24.000000
v 11.000000 84.000000 24.000000
v 45.000000 84.000000 24.000000
v 11.000000 44.000000 24.000000
v 45.000000 44.000000 24.000000
v 11.000000 44.000000 24.000000
v 45.000000 44.000000 24.000000
v 11.000000 0.000000 24.000000
v 45.000000 0.000000 24.000000
v 45.000000 84.000000 -24.000000
v 11.000000 84.000000 -24.000000
v 45.000000 44.000000 -24.000000
v 11.000000 44.000000 -24.000000
v 45.000000 44.000000 -24.000000
v 11.000000 44.000000 -24.000000
v 45.000000 0.000000 -24.000000
v 11.000000 0.000000 -24.000000
v -30.000000 84.000000 16.000000
v 11.000000 84.000000 16.000000
v -30.000000 44.000000 16.000000
v 11.000000 44.000000 16.000000
v -30.000000 44.000000 16.000000
v 11.000000 44.000000 16.000000
v -30.000000 0.000000 16.000000
v 11.000000 0.000000 16.000000
v 11.000000 84.000000 -16.000000
v -30.000000 84.000000 -16.000000
v 11.000000 44.000000 -16.000000
v -30.000000 44.000000 -16.000000
v 11.000000 44.000000 -16.000000
v -30.000000 44.000000 -16.000000
v 11.000000 0.000000 -16.000000
v -30.000000 0.000000 -16.000000
v -30.000000 84.000000 -16.000000
v -30.000000 84.000000 16.000000
v -30.000000 44.000000 -16.000000
v -30.000000 44.000000 16.000000
v -30.000000 44.000000 -16.000000
v -30.000000 44.000000 16.000000
v -30.000000 0.000000 -16.000000
v -30.000000 0.000000 16.000000
# 64 vertices

vt 0.843750 0.000000
vt 1.000000 0.000000
vt 1.000000 0.125000
vt 0.843750 0.125000
vt 0.187500 0.125000
vt 0.000000 0.125000
vt 0.000000 0.000000
vt 0.187500 0.000000
vt 0.000000 0.437500
vt 0.187500 0.437500
vt 0.187500 0.593750
vt 0.000000 0.593750
vt 0.000000 0.390625
vt 0.187500 0.390625
vt 0.187500 0.562500
vt 0.000000 0.562500
vt 0.312500 0.437500
vt 0.312500 0.593750
vt 0.312500 0.390625
vt 0.312500 0.562500
vt 0.468750 0.437500
vt 0.468750 0.593750
vt 0.468750 0.390625
vt 0.468750 0.562500
vt 0.656250 0.437500
vt 0.812500 0.437500
vt 0.812500 0.593750
vt 0.656250 0.593750
vt 0.656250 0.390625
vt 0.812500 0.390625
vt 0.812500 0.562500
vt 0.656250 0.562500
# 32 texture coordinates

vn 0.000000 1.000000 0.000000
vn 1.000000 0.000000 0.000000
vn -1.000000 0.000000 0.000000
vn 0.000000 0.000000 1.000000
vn 0.000000 0.000000 -1.000000
# 5 normals

g rus_build_9et_01b_LOD2
usemtl rus_build_LOD_02
s 1
f 3/1/1 4/2/1 2/3/1
f 3/1/1 2/3/1 1/4/1
f 7/5/1 8/6/1 6/7/1
f 7/5/1 6/7/1 5/8/1
f 11/9/2 12/10/2 10/11/2
f 11/9/2 10/11/2 9/12/2
f 15/13/2 16/14/2 14/15/2
f 15/13/2 14/15/2 13/16/2
f 19/9/3 20/10/3 18/11/3
f 19/9/3 18/11/3 17/12/3
f 23/13/3 24/14/3 22/15/3
f 23/13/3 22/15/3 21/16/3
f 27/10/4 28/17/4 26/18/4
f 27/10/4 26/18/4 25/11/4
f 31/14/4 32/19/4 30/20/4
f 31/14/4 30/20/4 29/15/4
f 35/10/5 36/17/5 34/18/5
f 35/10/5 34/18/5 33/11/5
f 39/14/5 40/19/5 38/20/5
f 39/14/5 38/20/5 37/15/5
f 43/17/4 44/21/4 42/22/4
f 43/17/4 42/22/4 41/18/4
f 47/19/4 48/23/4 46/24/4
f 47/19/4 46/24/4 45/20/4
f 51/25/5 52/26/5 50/27/5
f 51/25/5 50/27/5 49/28/5
f 55/29/5 56/30/5 54/31/5
f 55/29/5 54/31/5 53/32/5
f 59/10/3 60/17/3 58/18/3
f 59/10/3 58/18/3 57/11/3
f 63/14/3 64/19/3 62/20/3
f 63/14/3 62/20/3 61/15/3
# 32 triangles in group

# 32 triangles total

