# Wavefront OBJ exported

mtllib rus_build_4et_01_LOD2.mtl

v -57.000000 37.000000 -16.000000
v -57.000000 37.000000 16.000000
v -57.000000 0.000000 -16.000000
v -57.000000 0.000000 16.000000
v 57.000000 37.000000 16.000000
v 57.000000 37.000000 -16.000000
v 57.000000 0.000000 16.000000
v 57.000000 0.000000 -16.000000
v -57.000000 37.000000 16.000000
v 57.000000 37.000000 16.000000
v -57.000000 0.000000 16.000000
v 57.000000 0.000000 16.000000
v 57.000000 37.000000 -16.000000
v -57.000000 37.000000 -16.000000
v 57.000000 0.000000 -16.000000
v -57.000000 0.000000 -16.000000
v -59.000000 36.500000 0.000000
v -41.000000 41.000000 0.000000
v 41.000000 41.000000 0.000000
v -59.000000 36.500000 18.000000
v -41.000000 36.500000 18.000000
v 41.000000 36.500000 18.000000
v 41.000000 41.000000 0.000000
v 59.000000 36.500000 0.000000
v 41.000000 36.500000 18.000000
v 59.000000 36.500000 18.000000
v 59.000000 36.500000 0.000000
v 41.000000 41.000000 0.000000
v -41.000000 41.000000 0.000000
v 59.000000 36.500000 -18.000000
v 41.000000 36.500000 -18.000000
v -41.000000 36.500000 -18.000000
v -41.000000 41.000000 0.000000
v -59.000000 36.500000 0.000000
v -41.000000 36.500000 -18.000000
v -59.000000 36.500000 -18.000000
v -59.000000 36.500000 0.000000
v -41.000000 41.000000 0.000000
v 41.000000 41.000000 0.000000
v -59.000000 36.500000 18.000000
v -41.000000 36.500000 18.000000
v 41.000000 36.500000 18.000000
v 41.000000 41.000000 0.000000
v 59.000000 36.500000 0.000000
v 41.000000 36.500000 18.000000
v 59.000000 36.500000 18.000000
v 59.000000 36.500000 0.000000
v 41.000000 41.000000 0.000000
v -41.000000 41.000000 0.000000
v 59.000000 36.500000 -18.000000
v 41.000000 36.500000 -18.000000
v -41.000000 36.500000 -18.000000
v -41.000000 41.000000 0.000000
v -59.000000 36.500000 0.000000
v -41.000000 36.500000 -18.000000
v -59.000000 36.500000 -18.000000
# 56 vertices

vt 0.437500 1.000000
vt 0.437500 0.859375
vt 0.562500 0.859375
vt 0.562500 1.000000
vt 0.000000 1.000000
vt 0.000000 0.859375
vt 1.000000 0.859375
vt 1.000000 1.000000
vt 0.562500 0.000000
vt 0.634221 0.000000
vt 0.634221 0.062500
vt 0.562500 0.062500
vt 0.928279 0.000000
vt 0.928279 0.062500
vt 1.000000 0.000000
vt 1.000000 0.062500
# 16 texture coordinates

vn -1.000000 0.000000 0.000000
vn 1.000000 0.000000 0.000000
vn 0.000000 0.000000 1.000000
vn 0.000000 0.000000 -1.000000
vn -0.123091 0.984732 0.123091
vn 0.000000 0.970142 0.242536
vn -0.061314 0.981023 0.183942
vn -0.242536 0.970142 0.000000
vn 0.123091 0.984732 0.123091
vn 0.242536 0.970142 0.000000
vn 0.123091 0.984732 -0.123091
vn 0.000000 0.970142 -0.242536
vn 0.061314 0.981023 -0.183942
vn -0.123091 0.984732 -0.123091
vn 0.061314 -0.981023 -0.183942
vn 0.000000 -0.970142 -0.242536
vn 0.123091 -0.984732 -0.123091
vn 0.242536 -0.970142 0.000000
vn -0.123091 -0.984732 -0.123091
vn -0.242536 -0.970142 0.000000
vn -0.061314 -0.981023 0.183942
vn 0.000000 -0.970142 0.242536
vn -0.123091 -0.984732 0.123091
vn 0.123091 -0.984732 0.123091
# 24 normals

g rus_build_4et_01_LOD2
usemtl rus_build_lod_01
s 1
f 1/1/1 3/2/1 4/3/1
f 1/1/1 4/3/1 2/4/1
f 5/1/2 7/2/2 8/3/2
f 5/1/2 8/3/2 6/4/2
f 9/5/3 11/6/3 12/2/3
f 9/5/3 12/2/3 10/1/3
f 13/4/4 15/3/4 16/7/4
f 13/4/4 16/7/4 14/8/4
f 20/9/5 21/10/6 18/11/7
f 20/9/5 18/11/7 17/12/8
f 18/11/7 21/10/6 22/13/6
f 18/11/7 22/13/6 19/14/6
f 23/14/9 25/13/6 26/15/9
f 23/14/9 26/15/9 24/16/10
f 30/9/11 31/10/12 28/11/13
f 30/9/11 28/11/13 27/12/10
f 28/11/13 31/10/12 32/13/12
f 28/11/13 32/13/12 29/14/12
f 33/14/14 35/13/12 36/15/14
f 33/14/14 36/15/14 34/16/8
f 38/11/15 41/10/16 40/9/17
f 37/12/18 38/11/15 40/9/17
f 42/13/16 41/10/16 38/11/15
f 39/14/16 42/13/16 38/11/15
f 46/15/19 45/13/16 43/14/19
f 44/16/20 46/15/19 43/14/19
f 48/11/21 51/10/22 50/9/23
f 47/12/20 48/11/21 50/9/23
f 52/13/22 51/10/22 48/11/21
f 49/14/22 52/13/22 48/11/21
f 56/15/24 55/13/22 53/14/24
f 54/16/18 56/15/24 53/14/24
# 32 triangles in group

# 32 triangles total

